<svg width="84" height="84" viewBox="0 0 84 84" fill="none" xmlns="http://www.w3.org/2000/svg">
<rect width="84" height="84" rx="42" fill="#FFF7F5"/>
<mask id="mask0_228_2927" style="mask-type:alpha" maskUnits="userSpaceOnUse" x="22" y="22" width="40" height="40">
<rect x="22" y="22" width="40" height="40" fill="#D9D9D9"/>
</mask>
<g mask="url(#mask0_228_2927)">
<path d="M30.3333 57C29.4167 57 28.6319 56.6736 27.9792 56.0208C27.3264 55.3681 27 54.5833 27 53.6667V47H30.3333V53.6667H53.6667V30.3333H30.3333V37H27V30.3333C27 29.4167 27.3264 28.6319 27.9792 27.9792C28.6319 27.3264 29.4167 27 30.3333 27H53.6667C54.5833 27 55.3681 27.3264 56.0208 27.9792C56.6736 28.6319 57 29.4167 57 30.3333V53.6667C57 54.5833 56.6736 55.3681 56.0208 56.0208C55.3681 56.6736 54.5833 57 53.6667 57H30.3333ZM39.5 50.3333L37.1667 47.9167L41.4167 43.6667H27V40.3333H41.4167L37.1667 36.0833L39.5 33.6667L47.8333 42L39.5 50.3333Z" fill="#1C1B1F"/>
</g>
</svg>
