<svg width="84" height="84" viewBox="0 0 84 84" fill="none" xmlns="http://www.w3.org/2000/svg">
<rect width="84" height="84" rx="42" fill="#FDD0C5"/>
<mask id="mask0_228_2928" style="mask-type:alpha" maskUnits="userSpaceOnUse" x="22" y="22" width="40" height="40">
<rect x="22" y="22" width="40" height="40" fill="#D9D9D9"/>
</mask>
<g mask="url(#mask0_228_2928)">
<path d="M48.666 53.6666C47.916 53.6666 47.1868 53.5972 46.4785 53.4583C45.7702 53.3194 45.0827 53.125 44.416 52.875C46.0271 51.5139 47.2771 49.8889 48.166 48C49.0549 46.1111 49.4993 44.1111 49.4993 42C49.4993 39.8889 49.0549 37.8889 48.166 36C47.2771 34.1111 46.0271 32.4861 44.416 31.125C45.0827 30.875 45.7702 30.6805 46.4785 30.5416C47.1868 30.4028 47.916 30.3333 48.666 30.3333C51.916 30.3333 54.673 31.4653 56.9369 33.7291C59.2007 35.993 60.3327 38.75 60.3327 42C60.3327 45.25 59.2007 48.0069 56.9369 50.2708C54.673 52.5347 51.916 53.6666 48.666 53.6666ZM35.3327 53.6666C32.0827 53.6666 29.3257 52.5347 27.0618 50.2708C24.798 48.0069 23.666 45.25 23.666 42C23.666 38.75 24.798 35.993 27.0618 33.7291C29.3257 31.4653 32.0827 30.3333 35.3327 30.3333C36.0827 30.3333 36.8118 30.4028 37.5202 30.5416C38.2285 30.6805 38.916 30.875 39.5827 31.125C39.1105 31.5139 38.666 31.9375 38.2493 32.3958C37.8327 32.8541 37.4438 33.3333 37.0827 33.8333C36.8049 33.7778 36.5202 33.7361 36.2285 33.7083C35.9368 33.6805 35.6382 33.6666 35.3327 33.6666C33.0271 33.6666 31.0618 34.4791 29.4368 36.1041C27.8118 37.7291 26.9993 39.6944 26.9993 42C26.9993 44.3055 27.8118 46.2708 29.4368 47.8958C31.0618 49.5208 33.0271 50.3333 35.3327 50.3333C35.6382 50.3333 35.9368 50.3194 36.2285 50.2916C36.5202 50.2639 36.8049 50.2222 37.0827 50.1666C37.4438 50.6666 37.8327 51.1458 38.2493 51.6041C38.666 52.0625 39.1105 52.4861 39.5827 52.875C38.916 53.125 38.2285 53.3194 37.5202 53.4583C36.8118 53.5972 36.0827 53.6666 35.3327 53.6666ZM41.9993 51.5833C40.416 50.5 39.1869 49.1111 38.3119 47.4166C37.4369 45.7222 36.9993 43.9166 36.9993 42C36.9993 40.0833 37.4369 38.2778 38.3119 36.5833C39.1869 34.8889 40.416 33.5 41.9993 32.4166C43.5827 33.5 44.8119 34.8889 45.6869 36.5833C46.5619 38.2778 46.9993 40.0833 46.9993 42C46.9993 43.9166 46.5619 45.7222 45.6869 47.4166C44.8119 49.1111 43.5827 50.5 41.9993 51.5833Z" fill="#1C1B1F"/>
</g>
</svg>
