<svg width="84" height="84" viewBox="0 0 84 84" fill="none" xmlns="http://www.w3.org/2000/svg">
<rect width="84" height="84" rx="42" fill="#FDD0C5"/>
<mask id="mask0_228_2932" style="mask-type:alpha" maskUnits="userSpaceOnUse" x="22" y="22" width="40" height="40">
<rect x="22" y="22" width="40" height="40" fill="#D9D9D9"/>
</mask>
<g mask="url(#mask0_228_2932)">
<path d="M39.125 42C38.3472 42 37.7083 41.7083 37.2083 41.125C36.7083 40.5417 36.5278 39.8611 36.6667 39.0833L37.1667 36.0833C37.3889 34.8889 37.9514 33.9097 38.8542 33.1458C39.7569 32.3819 40.8056 32 42 32C43.2222 32 44.2847 32.3819 45.1875 33.1458C46.0903 33.9097 46.6528 34.8889 46.875 36.0833L47.375 39.0833C47.5139 39.8611 47.3333 40.5417 46.8333 41.125C46.3333 41.7083 45.6944 42 44.9167 42H39.125ZM40.125 38.6667H43.9167L43.5833 36.625C43.5278 36.2361 43.3472 35.9236 43.0417 35.6875C42.7361 35.4514 42.3889 35.3333 42 35.3333C41.6111 35.3333 41.2708 35.4514 40.9792 35.6875C40.6875 35.9236 40.5139 36.2361 40.4583 36.625L40.125 38.6667ZM27.1667 43.625C26.5278 43.6528 25.9792 43.5278 25.5208 43.25C25.0625 42.9722 24.7639 42.5417 24.625 41.9583C24.5694 41.7083 24.5556 41.4583 24.5833 41.2083C24.6111 40.9583 24.6806 40.7222 24.7917 40.5C24.7917 40.5278 24.7778 40.4722 24.75 40.3333C24.6944 40.2778 24.5556 39.9444 24.3333 39.3333C24.2778 39 24.3194 38.6806 24.4583 38.375C24.5972 38.0694 24.7778 37.8056 25 37.5833L25.0833 37.5C25.1389 36.9722 25.3542 36.5278 25.7292 36.1667C26.1042 35.8056 26.5694 35.625 27.125 35.625C27.2083 35.625 27.4722 35.6806 27.9167 35.7917L28.0417 35.75C28.1806 35.6111 28.3611 35.5069 28.5833 35.4375C28.8056 35.3681 29.0417 35.3333 29.2917 35.3333C29.5972 35.3333 29.8681 35.3819 30.1042 35.4792C30.3403 35.5764 30.5278 35.7222 30.6667 35.9167C30.6944 35.9167 30.7153 35.9236 30.7292 35.9375C30.7431 35.9514 30.7639 35.9583 30.7917 35.9583C31.1806 35.9861 31.5208 36.1042 31.8125 36.3125C32.1042 36.5208 32.3194 36.8056 32.4583 37.1667C32.5139 37.3611 32.5347 37.5486 32.5208 37.7292C32.5069 37.9097 32.4722 38.0833 32.4167 38.25C32.4167 38.2778 32.4306 38.3333 32.4583 38.4167C32.6528 38.6111 32.8056 38.8264 32.9167 39.0625C33.0278 39.2986 33.0833 39.5417 33.0833 39.7917C33.0833 39.9028 33 40.1944 32.8333 40.6667C32.8056 40.7222 32.8056 40.7778 32.8333 40.8333L32.9167 41.5C32.9167 42.0833 32.6736 42.5833 32.1875 43C31.7014 43.4167 31.1111 43.625 30.4167 43.625H27.1667ZM55.3333 43.6667C54.4167 43.6667 53.6319 43.3403 52.9792 42.6875C52.3264 42.0347 52 41.25 52 40.3333C52 40 52.0486 39.6875 52.1458 39.3958C52.2431 39.1042 52.375 38.8194 52.5417 38.5417L51.375 37.5C51.0972 37.2778 51.0486 37 51.2292 36.6667C51.4097 36.3333 51.6667 36.1667 52 36.1667H55.3333C56.25 36.1667 57.0347 36.4931 57.6875 37.1458C58.3403 37.7986 58.6667 38.5833 58.6667 39.5V40.3333C58.6667 41.25 58.3403 42.0347 57.6875 42.6875C57.0347 43.3403 56.25 43.6667 55.3333 43.6667ZM22 52V49.375C22 48.1528 22.6181 47.1736 23.8542 46.4375C25.0903 45.7014 26.6944 45.3333 28.6667 45.3333C29.0278 45.3333 29.375 45.3403 29.7083 45.3542C30.0417 45.3681 30.3611 45.4028 30.6667 45.4583C30.2778 46.0139 29.9861 46.6111 29.7917 47.25C29.5972 47.8889 29.5 48.5694 29.5 49.2917V52H22ZM32 52V49.2917C32 47.4861 32.9236 46.0278 34.7708 44.9167C36.6181 43.8056 39.0278 43.25 42 43.25C45 43.25 47.4167 43.8056 49.25 44.9167C51.0833 46.0278 52 47.4861 52 49.2917V52H32ZM55.3333 45.3333C57.3333 45.3333 58.9444 45.7014 60.1667 46.4375C61.3889 47.1736 62 48.1528 62 49.375V52H54.5V49.2917C54.5 48.5694 54.4097 47.8889 54.2292 47.25C54.0486 46.6111 53.7778 46.0139 53.4167 45.4583C53.7222 45.4028 54.0347 45.3681 54.3542 45.3542C54.6736 45.3403 55 45.3333 55.3333 45.3333ZM42 46.5833C40.4167 46.5833 39 46.7917 37.75 47.2083C36.5 47.625 35.7639 48.1111 35.5417 48.6667H48.5C48.25 48.1111 47.5069 47.625 46.2708 47.2083C45.0347 46.7917 43.6111 46.5833 42 46.5833Z" fill="#1C1B1F"/>
</g>
</svg>
